# xmcd CD database file
#
# Track frame offsets:
#	150
#	18495
#	38329
#	59167
#	78379
#	100404
#	117362
#	139375
#	161035
#	178120
#	198189
#	220382
#	240136
#	261973
#	283136
#	304509
#	323336
#
# Disc length: 4503 seconds
#
# Revision: 1
# Processed by: cddbd v1.5.2PL0 Copyright (c) Steve Scherf et al.
# Submitted via: CDex 1.51
#
DISCID=ee119511
DTITLE=Various Artist - The Colour of Merengue  [CD 2-3] 
DYEAR=2011
DGENRE=Merengue
TTITLE0=Ernesto Esparza - Billirubina
TTITLE1=Carlos Jarado - La Negra Carmen
TTITLE2=Heraldo Hurtado - A La Loco
TTITLE3=Enrique Escobar - Que No Vuelva Mas
TTITLE4=Felipe Farias - Solo Ella 
TTITLE5=Carlito Inarez - En Tu Pelo
TTITLE6=Felix Fuentes - Ni Tu Ni Yo
TTITLE7=Maria Valdez - Salado Y Dulce
TTITLE8=Florio Feliciano - Los Agricultores
TTITLE9=Che Lara - Tanto Problema
TTITLE10=Mauricio Mendez - El Rey
TTITLE11=Armando Gamboa - La Duena Del Swing
TTITLE12=Pueblo Ocasio - Confundido
TTITLE13=Adelio Fernandez - Maribel  [Si Mi Llaman]
TTITLE14=Rico Montero - La Cerveza
TTITLE15=Merengkids - Follow The Leader
TTITLE16=Grupo Ramirez - Yo Merengue
EXTD=YEAR: 2011
EXTT0=
EXTT1=
EXTT2=
EXTT3=
EXTT4=
EXTT5=
EXTT6=
EXTT7=
EXTT8=
EXTT9=
EXTT10=
EXTT11=
EXTT12=
EXTT13=
EXTT14=
EXTT15=
EXTT16=
PLAYORDER=
